# 3ds Max Wavefront OBJ Exporter v0.99 - (c)2007 guruware
# File Created: 30.10.2024 08:21:10

mtllib piso_bosque.mtl

#
# object Box001
#

v  -51.1634 0.0000 -68.5656
v  -49.8933 0.0000 66.4437
v  60.8937 0.0000 -69.6199
v  62.1639 0.0000 65.3895
v  62.1639 -0.9296 65.3895
v  -49.8933 -0.9296 66.4437
v  60.8937 -0.9296 -69.6199
v  -51.1634 -0.9296 -68.5656
# 8 vertices

vn 0.0000 1.0000 -0.0000
vn 0.0000 -1.0000 -0.0000
vn 0.0094 0.0000 1.0000
vn 1.0000 0.0000 -0.0094
vn -0.0094 0.0000 -1.0000
vn -1.0000 0.0000 0.0094
# 6 vertex normals

vt 0.0000 1.0000 0.0000
vt 0.0000 0.0000 0.0000
vt 1.0000 1.0000 0.0000
vt 1.0000 0.0000 0.0000
# 4 texture coords

o Box001
g Box001
usemtl Material__37
s 2
f 1/1/1 2/2/1 3/3/1 
f 4/4/1 3/3/1 2/2/1 
s 4
f 5/2/2 6/4/2 7/1/2 
f 8/3/2 7/1/2 6/4/2 
s 8
f 4/4/3 2/2/3 5/3/3 
f 6/1/3 5/3/3 2/2/3 
s 16
f 3/4/4 4/2/4 7/3/4 
f 5/1/4 7/3/4 4/2/4 
s 32
f 1/4/5 3/2/5 8/3/5 
f 7/1/5 8/3/5 3/2/5 
s 64
f 2/4/6 1/2/6 6/3/6 
f 8/1/6 6/3/6 1/2/6 
# 12 faces

